HIERARCHY
ROOT hip
{
  OFFSET 0 0 0
  CHANNELS 6 Xposition Yposition Zposition Zrotation Yrotation Xrotation
  JOINT abdomen
  {
    OFFSET 0 20.6881 -0.73152
    CHANNELS 3 Zrotation Xrotation Yrotation
    JOINT chest
    {
      OFFSET 0 11.7043 -0.48768
      CHANNELS 3 Zrotation Xrotation Yrotation
      JOINT neck
      {
        OFFSET 0 22.1894 -2.19456
        CHANNELS 3 Zrotation Xrotation Yrotation
        JOINT head
        {
          OFFSET -0.24384 7.07133 1.2192
          CHANNELS 3 Zrotation Xrotation Yrotation
          JOINT leftEye
          {
            OFFSET 4.14528 8.04674 8.04672
            CHANNELS 3 Zrotation Xrotation Yrotation
            End Site
            {
              OFFSET 1 0 0
            }
          }
          JOINT rightEye
          {
            OFFSET -3.6576 8.04674 8.04672
            CHANNELS 3 Zrotation Xrotation Yrotation
            End Site
            {
              OFFSET 1 0 0
            }
          }
        }
      }
      JOINT rCollar
      {
        OFFSET -2.68224 19.2634 -4.8768
        CHANNELS 3 Zrotation Xrotation Yrotation
        JOINT rShldr
        {
          OFFSET -8.77824 -1.95073 1.46304
          CHANNELS 3 Zrotation Xrotation Yrotation
          JOINT rForeArm
          {
            OFFSET -28.1742 -1.7115 0.48768
            CHANNELS 3 Zrotation Xrotation Yrotation
            JOINT rHand
            {
              OFFSET -22.5879 0.773209 7.07136
              CHANNELS 3 Zrotation Xrotation Yrotation
              JOINT rThumb1
              {
                OFFSET -1.2192 -0.487915 3.41376
                CHANNELS 3 Zrotation Xrotation Yrotation
                JOINT rThumb2
                {
                  OFFSET -3.37035 -0.52449 3.41376
                  CHANNELS 3 Zrotation Xrotation Yrotation
                  End Site
                  {
                    OFFSET -1.78271 -1.18214 1.43049
                  }
                }
              }
              JOINT rIndex1
              {
                OFFSET -7.75947 0.938293 5.60832
                CHANNELS 3 Zrotation Xrotation Yrotation
                JOINT rIndex2
                {
                  OFFSET -2.54057 -0.884171 1.56538
                  CHANNELS 3 Zrotation Xrotation Yrotation
                  End Site
                  {
                    OFFSET -1.62519 -0.234802 1.16502
                  }
                }
              }
              JOINT rMid1
              {
                OFFSET -8.24714 1.18213 3.41376
                CHANNELS 3 Zrotation Xrotation Yrotation
                JOINT rMid2
                {
                  OFFSET -3.10165 -0.590103 1.0647
                  CHANNELS 3 Zrotation Xrotation Yrotation
                  End Site
                  {
                    OFFSET -2.48547 -0.328903 0.83742
                  }
                }
              }
              JOINT rRing1
              {
                OFFSET -8.82822 0.546677 1.51678
                CHANNELS 3 Zrotation Xrotation Yrotation
                JOINT rRing2
                {
                  OFFSET -2.60934 -0.819778 -0.0198488
                  CHANNELS 3 Zrotation Xrotation Yrotation
                  End Site
                  {
                    OFFSET -2.33842 -0.294052 0.168128
                  }
                }
              }
              JOINT rPinky1
              {
                OFFSET -8.27202 -0.0477905 -0.4584
                CHANNELS 3 Zrotation Xrotation Yrotation
                JOINT rPinky2
                {
                  OFFSET -1.82734 -0.647385 -0.700984
                  CHANNELS 3 Zrotation Xrotation Yrotation
                  End Site
                  {
                    OFFSET -1.69225 -0.51767 -0.607171
                  }
                }
              }
            }
          }
        }
      }
      JOINT lCollar
      {
        OFFSET 2.68224 19.2634 -4.8768
        CHANNELS 3 Zrotation Xrotation Yrotation
        JOINT lShldr
        {
          OFFSET 8.77824 -1.95073 1.46304
          CHANNELS 3 Zrotation Xrotation Yrotation
          JOINT lForeArm
          {
            OFFSET 28.1742 -1.7115 0.48768
            CHANNELS 3 Zrotation Xrotation Yrotation
            JOINT lHand
            {
              OFFSET 22.5879 0.773209 7.07136
              CHANNELS 3 Zrotation Xrotation Yrotation
              JOINT lThumb1
              {
                OFFSET 1.2192 -0.487915 3.41376
                CHANNELS 3 Zrotation Xrotation Yrotation
                JOINT lThumb2
                {
                  OFFSET 3.37035 -0.52449 3.41376
                  CHANNELS 3 Zrotation Xrotation Yrotation
                  End Site
                  {
                    OFFSET 1.78271 -1.18214 1.43049
                  }
                }
              }
              JOINT lIndex1
              {
                OFFSET 7.75947 0.938293 5.60832
                CHANNELS 3 Zrotation Xrotation Yrotation
                JOINT lIndex2
                {
                  OFFSET 2.54057 -0.884171 1.56538
                  CHANNELS 3 Zrotation Xrotation Yrotation
                  End Site
                  {
                    OFFSET 1.62519 -0.234802 1.16502
                  }
                }
              }
              JOINT lMid1
              {
                OFFSET 8.24714 1.18213 3.41376
                CHANNELS 3 Zrotation Xrotation Yrotation
                JOINT lMid2
                {
                  OFFSET 3.10165 -0.590103 1.0647
                  CHANNELS 3 Zrotation Xrotation Yrotation
                  End Site
                  {
                    OFFSET 2.48547 -0.328903 0.83742
                  }
                }
              }
              JOINT lRing1
              {
                OFFSET 8.82822 0.546677 1.51678
                CHANNELS 3 Zrotation Xrotation Yrotation
                JOINT lRing2
                {
                  OFFSET 2.60934 -0.819778 -0.0198488
                  CHANNELS 3 Zrotation Xrotation Yrotation
                  End Site
                  {
                    OFFSET 2.33842 -0.294052 0.168128
                  }
                }
              }
              JOINT lPinky1
              {
                OFFSET 8.27202 -0.0477905 -0.4584
                CHANNELS 3 Zrotation Xrotation Yrotation
                JOINT lPinky2
                {
                  OFFSET 1.82734 -0.647385 -0.700984
                  CHANNELS 3 Zrotation Xrotation Yrotation
                  End Site
                  {
                    OFFSET 1.69225 -0.51767 -0.607171
                  }
                }
              }
            }
          }
        }
      }
    }
  }
  JOINT rButtock
  {
    OFFSET -8.77824 4.35084 1.2192
    CHANNELS 3 Zrotation Xrotation Yrotation
    JOINT rThigh
    {
      OFFSET 0 -1.70687 -2.19456
      CHANNELS 3 Zrotation Xrotation Yrotation
      JOINT rShin
      {
        OFFSET 0 -36.8199 0.73152
        CHANNELS 3 Zrotation Xrotation Yrotation
        JOINT rFoot
        {
          OFFSET 0.73152 -45.1104 -5.12064
          CHANNELS 3 Zrotation Xrotation Yrotation
          End Site
          {
            OFFSET -1.1221 -3.69964 12.103
          }
        }
      }
    }
  }
  JOINT lButtock
  {
    OFFSET 8.77824 4.35084 1.2192
    CHANNELS 3 Zrotation Xrotation Yrotation
    JOINT lThigh
    {
      OFFSET 0 -1.70687 -2.19456
      CHANNELS 3 Zrotation Xrotation Yrotation
      JOINT lShin
      {
        OFFSET 0 -36.8199 0.73152
        CHANNELS 3 Zrotation Xrotation Yrotation
        JOINT lFoot
        {
          OFFSET -0.73152 -45.1104 -5.12064
          CHANNELS 3 Zrotation Xrotation Yrotation
          End Site
          {
            OFFSET 1.1221 -3.69964 12.103
          }
        }
      }
    }
  }
}
MOTION
Frames:	4
Frame Time:	0.00833333
1.08891 68.7626 -242.298 0.0 0.0 0.0 1.57504 -0.00270793 0.0428962 0.434166 0.00151614 0.0751873 -3.54395e-14 1.59028e-15 -4.22418e-16 -1.06415e-13 9.54166e-15 -1.26881e-15 -0.0 0.0 0.0 -0.0 0.0 0.0 -1.76436e-14 7.02735e-17 -4.96962e-17 -3.70303e-13 1.58407e-15 -4.57205e-15 -6.38775e-12 1.96181e-12 -1.27222e-14 -7.30696e-11 -1.64999e-12 -9.50986e-13 -1.72367e-10 6.71326e-13 -2.06418e-12 -2.97684e-10 1.15772e-12 -3.57971e-12 -1.72363e-10 6.71892e-13 -2.06418e-12 7.73091 5.47488 0.417314 -1.72366e-10 6.71495e-13 -2.07054e-12 2.90554 0.965183 0.102902 -1.72354e-10 6.71296e-13 -2.07531e-12 10.2786 0.731801 0.0259123 -1.7237e-10 6.71892e-13 -2.07372e-12 2.22167 -0.733487 -0.20892 -1.78406e-14 6.91087e-17 -2.98177e-16 -3.73369e-13 1.78906e-15 -6.75868e-15 -6.38317e-12 -1.86361e-12 -3.81667e-14 -7.30931e-11 2.18216e-12 -9.28722e-13 -1.72399e-10 6.87336e-13 -2.09599e-12 -2.97721e-10 1.18317e-12 -3.59482e-12 -1.72404e-10 6.87795e-13 -2.08326e-12 -7.73091 5.47488 -0.417314 -1.724e-10 6.87696e-13 -2.08962e-12 -2.90554 0.965183 -0.102902 -1.7241e-10 6.88093e-13 -2.08406e-12 -10.2786 0.731801 -0.0259123 -1.72396e-10 6.8859e-13 -2.08326e-12 -2.22167 -0.733487 0.20892 -2.03217e-16 0.0 -3.88251e-19 1.7045 -6.60404 -0.159315 0.00258925 6.39971 0.0733839 -0.527658 0.199727 0.0640473 2.03217e-16 0.0 3.88251e-19 0.691898 -1.9236 0.00558371 0.00917838 -2.07857 0.0757535 0.503095 3.99746 -0.138975
3.82699 66.0172 -246.91 11.2181 -3.5581 11.6147 1.28506 3.40059 -2.53696 1.75896 -2.69344 -0.430386 2.05799 1.67644 4.63335 30.042 24.1989 -17.6988 -0.0 0.0 0.0 -0.0 0.0 0.0 1.58607e-14 1.05992e-13 -1.068e-14 18.8689 4.29177 -10.3908 -6.01997 -3.22101 8.82073 0.00123768 1.15018 0.161711 -1.04695e-10 2.37039e-11 -4.98572e-10 -1.83004e-10 3.82098e-11 -8.64435e-10 -1.04692e-10 2.37037e-11 -4.98574e-10 7.73091 5.47488 0.417314 -1.04695e-10 2.37041e-11 -4.98577e-10 2.90554 0.965183 0.102902 -1.04685e-10 2.37039e-11 -4.98578e-10 10.2786 0.731801 0.0259123 -1.04699e-10 2.37044e-11 -4.98573e-10 2.22167 -0.733487 -0.20892 1.57153e-14 1.05989e-13 -1.09297e-14 -22.8054 12.9991 -1.17791 19.1785 -16.8643 -15.19 -0.00696862 1.91316 -0.268382 8.61147e-10 -4.94289e-09 -1.16737e-09 1.48324e-09 -8.55279e-09 -2.02288e-09 8.61142e-10 -4.94288e-09 -1.16735e-09 -7.73091 5.47488 -0.417314 8.61146e-10 -4.94289e-09 -1.16736e-09 -2.90554 0.965183 -0.102902 8.61136e-10 -4.94288e-09 -1.16736e-09 -10.2786 0.731801 -0.0259123 8.6115e-10 -4.94289e-09 -1.16736e-09 -2.22167 -0.733487 0.20892 -2.03217e-16 0.0 -3.88251e-19 3.34409 -24.876 -3.35515 -0.525548 20.4717 -0.0399112 -1.44428 1.5965 -5.04857 2.03217e-16 0.0 3.88251e-19 -1.32767 -1.03752 1.43957 -0.113895 16.9762 -0.209046 0.861961 5.94049 -2.70663
3.62908 65.6978 -244.843 9.9883 -4.6541 10.2754 1.25668 6.92467 -5.31704 3.11386 -5.54032 -0.97543 3.93526 3.3975 9.53659 81.392 41.243 -46.6077 -0.0 0.0 0.0 -0.0 0.0 0.0 5.23928e-14 2.2317e-13 -2.10091e-14 40.521 8.43543 -21.6974 -11.3645 -6.41142 18.3057 -0.0053723 2.26838 0.319273 -3.17392e-11 4.76234e-11 -1.05514e-09 -5.95112e-11 7.64192e-11 -1.82942e-09 -3.17385e-11 4.76223e-11 -1.05515e-09 7.73091 5.47488 0.417314 -3.17403e-11 4.76238e-11 -1.05515e-09 2.90554 0.965183 0.102902 -3.17327e-11 4.76234e-11 -1.05514e-09 10.2786 0.731801 0.0259123 -3.17456e-11 4.76239e-11 -1.05514e-09 2.22167 -0.733487 -0.20892 5.23019e-14 2.23163e-13 -2.12606e-14 -46.2412 26.7987 -2.65866 29.0036 -30.7106 -35.42 0.00563097 3.9909 -0.560911 2.00615e-09 -1.04298e-08 -2.46173e-09 3.45628e-09 -1.8047e-08 -4.26586e-09 2.00615e-09 -1.04298e-08 -2.46172e-09 -7.73091 5.47488 -0.417314 2.00615e-09 -1.04298e-08 -2.46173e-09 -2.90554 0.965183 -0.102902 2.00614e-09 -1.04298e-08 -2.46172e-09 -10.2786 0.731801 -0.0259123 2.00616e-09 -1.04298e-08 -2.46173e-09 -2.22167 -0.733487 0.20892 -2.03217e-16 0.0 -3.88251e-19 1.97956 -44.0283 -8.52893 -1.01447 35.2461 -0.198069 -2.12746 3.13091 -10.4546 2.03217e-16 0.0 3.88251e-19 -3.6132 0.0617733 2.89702 0.000242233 36.8622 -0.612638 1.44463 8.04795 -5.47086
3.26269 65.2881 -242.833 7.8876 -6.2649 8.9806 1.63376 10.1245 -7.80554 4.26469 -8.081 -1.45455 5.36692 4.89779 13.946 138.999 40.1532 -77.6396 -0.0 0.0 0.0 -0.0 0.0 0.0 8.28693e-14 3.17836e-13 -3.19407e-14 61.0935 11.1833 -31.755 -15.1735 -8.74865 26.7557 -0.0157943 3.45043 0.485915 3.06496e-11 6.97689e-11 -1.49159e-09 4.63546e-11 1.12314e-10 -2.58615e-09 3.06489e-11 6.97672e-11 -1.49159e-09 7.73091 5.47488 0.417314 3.06478e-11 6.97694e-11 -1.49159e-09 2.90554 0.965183 0.102902 3.06534e-11 6.9769e-11 -1.49158e-09 10.2786 0.731801 0.0259123 3.06419e-11 6.97695e-11 -1.49157e-09 2.22167 -0.733487 -0.20892 8.28271e-14 3.17828e-13 -3.21926e-14 -66.4263 38.9216 -4.42738 29.3071 -34.9892 -57.2709 0.0330919 5.73897 -0.808751 2.92824e-09 -1.48301e-08 -3.49792e-09 5.04517e-09 -2.56607e-08 -6.06145e-09 2.92823e-09 -1.483e-08 -3.4979e-09 -7.73091 5.47488 -0.417314 2.92824e-09 -1.483e-08 -3.49791e-09 -2.90554 0.965183 -0.102902 2.92823e-09 -1.483e-08 -3.4979e-09 -10.2786 0.731801 -0.0259123 2.92824e-09 -1.483e-08 -3.49792e-09 -2.22167 -0.733487 0.20892 -2.03217e-16 0.0 -3.88251e-19 -4.95541 -60.3087 -18.0201 -1.34723 48.6149 -0.390289 -2.53793 4.2528 -15.3111 2.03217e-16 0.0 3.88251e-19 -5.49974 0.731598 4.30719 0.53847 55.0789 -1.31237 2.10726 9.75432 -7.91412
